<svg width="16" height="16" viewBox="0 0 16 16" fill="none" xmlns="http://www.w3.org/2000/svg">
<path d="M10.5 1C10.7761 1 11 1.22386 11 1.5V2H12C13.1046 2 14 2.89543 14 4V11.5C14 12.8807 12.8807 14 11.5 14H4.5C3.11929 14 2 12.8807 2 11.5V4C2 2.89543 2.89543 2 4 2H5V1.5C5 1.22386 5.22386 1 5.5 1C5.77614 1 6 1.22386 6 1.5V2H10V1.5C10 1.22386 10.2239 1 10.5 1ZM3 5.75V11.5C3 12.3284 3.67157 13 4.5 13H11.5C12.3284 13 13 12.3284 13 11.5V5.75H3ZM4 3C3.44772 3 3 3.44772 3 4V4.75H13V4C13 3.44772 12.5523 3 12 3H11V3.5C11 3.77614 10.7761 4 10.5 4C10.2239 4 10 3.77614 10 3.5V3H6V3.5C6 3.77614 5.77614 4 5.5 4C5.22386 4 5 3.77614 5 3.5V3H4Z" fill="black" style="fill:black;fill-opacity:1;"/>
</svg>
